<svg xmlns="http://www.w3.org/2000/svg" enable-background="new 0 0 66 66" viewBox="0 0 66 66" id="receptionist"><rect width="6.2" height="8.1" x="38.3" y="28.1" fill="#C6A28A"></rect><rect width="3.1" height="8.1" x="38.3" y="28.1" fill="#D5B79F"></rect><ellipse cx="50.4" cy="21.7" fill="#D5B79F" rx="2.4" ry=".9" transform="rotate(-81.176 50.44 21.694)"></ellipse><ellipse cx="32.4" cy="21.7" fill="#C6A28A" rx="2.4" ry=".9" transform="rotate(-98.824 32.39 21.694)"></ellipse><ellipse cx="41.4" cy="20.5" fill="#D5B79F" rx="8.7" ry="11"></ellipse><path fill="#C6A28A" d="M41.4,9.5c-4.8,0-8.7,4.9-8.7,11c0,6.1,3.9,11,8.7,11c0,0,0,0,0,0L41.4,9.5
							C41.4,9.5,41.4,9.5,41.4,9.5z"></path><path fill="#E6E6E8" d="M57.6,41.6c-1.2-4.8-6.2-6.2-6.2-6.2l-7-2.3l-0.1,0.1c-0.9,0.6-1.9,2.4-3,2.4c-1.1,0-2.2-1.8-3.1-2.4h0
				l-7,2.3c0,0-4.9,1.4-6.2,6.2c-1.2,4.8-1,13.9-1,13.9h17.2h17.2C58.6,55.4,58.9,46.3,57.6,41.6z"></path><path fill="#B5BABE" d="M57.6,41.6c-1.2-4.8-6.2-6.2-6.2-6.2l-7-2.3l-0.1,0.1c-0.9,0.6-1.9,2.3-3,2.4l0,19.9h17.2
				C58.6,55.4,58.9,46.3,57.6,41.6z"></path><polygon fill="#E8664A" points="42.4 35.5 41.4 35.5 40.5 35.5 39.5 37.2 40.5 38.8 42.4 38.8 43.3 37.2"></polygon><polyline fill="#D95239" points="41.4 38.8 42.4 38.8 43.3 37.2 42.4 35.5 41.4 35.5"></polyline><polygon fill="#E6E6E8" points="44.5 32.2 41.4 35.5 44.3 38.7 46.2 33.7"></polygon><polygon fill="#D4D8DB" points="36.6 33.7 38.5 38.7 41.4 35.5 38.3 32.2"></polygon><polygon fill="#D95239" points="43.4 55.4 41.4 55.4 41.4 38.8 42.4 38.8"></polygon><polygon fill="#E8664A" points="41.4 55.4 39.5 55.4 40.5 38.8 41.4 38.8"></polygon><path fill="#465C6A" d="M49.3,9.9c-1.1-1.9-3.4-1.1-3.4-1.1l0,0c-1.6-1.5-3.8-1.4-4.5-1.4c-1.3,0-6.2,1.1-7.8,3.7
			c-1.9,2.9-1.7,4.3-1.6,6.5c0.1,1.6,0.6,4.3,0.9,5.5c0,0.2,0.2,0.4,0.4,0.4c0.2,0,0.4-0.2,0.4-0.4c0-0.7,0.1-1.6,0.2-2.2
			c0,0-0.4-1.8-0.2-3.3c8.7-0.1,11.2-3.1,11.2-3.1c1.1,0.5,2.2,1,2.9,1.3c1.9,0.8,0.9,5.2,0.9,5.2c0.1,0.6,0.2,1.5,0.2,2.2
			c0,0.2,0.2,0.4,0.4,0.4c0.2,0,0.4-0.1,0.4-0.4c0.3-1.3,0.8-3.9,0.9-5.5c0-0.7,0.1-1.2,0.1-1.8c0,0,0,0,0-0.1
			C51.2,13.4,50.4,11.9,49.3,9.9z"></path><rect width="63.3" height="4.6" x="1.3" y="53.9" fill="#D5B79F"></rect><g><path fill="#465C6A" d="M29.8,28.1H4.5c-0.4,0-0.8,0.4-0.8,0.8V47c0,0.4,0.4,0.8,0.8,0.8h25.3c0.4,0,0.8-0.4,0.8-0.8V28.9
			C30.6,28.5,30.2,28.1,29.8,28.1z"></path><path fill="#3B4C56" d="M4.5,28.1c-0.4,0-0.8,0.4-0.8,0.8V47c0,0.4,0.4,0.8,0.8,0.8h12.7V28.1H4.5z"></path><rect width="22" height="15.6" x="6.2" y="30.2" fill="#465C6A"></rect><rect width="11" height="15.6" x="17.1" y="30.2" fill="#3B4C56"></rect><rect width="5.5" height="16.3" x="14.4" y="37.2" fill="#465C6A"></rect><rect width="2.7" height="16.3" x="14.4" y="37.2" fill="#3B4C56"></rect><rect width="14.1" height="1.6" x="10.1" y="52.3" fill="#465C6A"></rect></g></svg>