<svg xmlns="http://www.w3.org/2000/svg" viewBox="0 0 72 72" id="air-conditioner"><defs><linearGradient id="a" x1="1" x2="71" y1="36" y2="36" gradientUnits="userSpaceOnUse"><stop offset="0" stop-color="#1ec4ff"></stop><stop offset=".15" stop-color="#2cb8ff"></stop><stop offset=".43" stop-color="#539bff"></stop><stop offset=".81" stop-color="#916dff"></stop><stop offset="1" stop-color="#b255ff"></stop></linearGradient></defs><path fill="url(#a)" d="M70,35h-7.91l5.62-5.51c.39-.39,.4-1.02,.01-1.41-.39-.4-1.02-.4-1.41-.01l-7.07,6.94h-7.6c-.23-3.57-1.65-6.81-3.87-9.34l5.38-5.38,9.91-.09c.55,0,1-.46,.99-1.01,0-.55-.45-.99-1-.99h0l-7.87,.07,5.59-5.59c.39-.39,.39-1.02,0-1.41s-1.02-.39-1.41,0l-5.59,5.59,.08-7.87c0-.55-.44-1-.99-1.01h0c-.55,0-1,.44-1,.99l-.09,9.91-5.38,5.38c-2.53-2.23-5.77-3.65-9.34-3.87v-7.6l6.94-7.07c.39-.39,.38-1.03-.01-1.41-.39-.39-1.03-.38-1.41,.01l-5.51,5.62V2c0-.55-.45-1-1-1s-1,.45-1,1v7.91l-5.51-5.62c-.39-.4-1.02-.4-1.41-.01-.39,.39-.4,1.02-.01,1.41l6.94,7.07v7.6c-3.57,.23-6.81,1.65-9.34,3.87l-5.38-5.38-.09-9.91c0-.55-.45-.99-1-.99h0c-.55,0-1,.46-.99,1.01l.08,7.87-5.59-5.59c-.39-.39-1.02-.39-1.41,0s-.39,1.02,0,1.41l5.59,5.59-7.87-.07h0c-.55,0-1,.44-1,.99,0,.55,.44,1,.99,1.01l9.91,.09,5.38,5.38c-2.23,2.53-3.65,5.77-3.87,9.34h-7.6l-7.07-6.94c-.39-.39-1.03-.38-1.41,.01-.39,.39-.38,1.03,.01,1.41l5.62,5.51H2c-.55,0-1,.45-1,1s.45,1,1,1h7.91l-5.62,5.51c-.39,.39-.4,1.02-.01,1.41,.2,.2,.46,.3,.71,.3s.51-.09,.7-.29l7.07-6.94h7.6c.23,3.57,1.65,6.81,3.87,9.34l-5.38,5.38-9.91,.09c-.55,0-1,.46-.99,1.01,0,.55,.45,.99,1,.99h0l7.87-.08-5.59,5.59c-.39,.39-.39,1.02,0,1.41,.2,.2,.45,.29,.71,.29s.51-.1,.71-.29l5.59-5.59-.08,7.87c0,.55,.44,1,.99,1.01h0c.55,0,1-.44,1-.99l.09-9.91,5.38-5.38c2.53,2.23,5.77,3.65,9.34,3.87v7.6l-6.94,7.07c-.39,.39-.38,1.03,.01,1.41,.39,.39,1.03,.38,1.41-.01l5.51-5.62v7.91c0,.55,.45,1,1,1s1-.45,1-1v-7.91l5.51,5.62c.2,.2,.46,.3,.71,.3s.51-.09,.7-.29c.39-.39,.4-1.02,.01-1.41l-6.94-7.07v-7.6c3.57-.23,6.81-1.65,9.34-3.87l5.38,5.38,.09,9.91c0,.55,.45,.99,1,.99h0c.55,0,1-.46,.99-1.01l-.08-7.87,5.59,5.59c.2,.2,.45,.29,.71,.29s.51-.1,.71-.29c.39-.39,.39-1.02,0-1.41l-5.59-5.59,7.87,.08h0c.55,0,1-.44,1-.99,0-.55-.44-1-.99-1.01l-9.91-.09-5.38-5.38c2.23-2.53,3.65-5.77,3.87-9.34h7.6l7.07,6.94c.19,.19,.45,.29,.7,.29s.52-.1,.71-.3c.39-.39,.38-1.03-.01-1.41l-5.62-5.51h7.91c.55,0,1-.45,1-1s-.45-1-1-1Zm-20.37,0h-11.21l7.93-7.93c1.87,2.16,3.07,4.91,3.29,7.93Zm-4.7-9.34l-7.93,7.93v-11.22c3.02,.22,5.77,1.42,7.93,3.29Zm-9.93-3.29v11.22l-7.93-7.93c2.16-1.87,4.91-3.07,7.93-3.29Zm-9.34,4.7l7.93,7.93h-11.21c.22-3.02,1.42-5.77,3.29-7.93Zm-3.29,9.93h11.21l-7.93,7.93c-1.87-2.16-3.07-4.91-3.29-7.93Zm4.7,9.34l7.93-7.93v11.21c-3.02-.22-5.77-1.42-7.93-3.29Zm9.93,3.29v-11.21l7.93,7.93c-2.16,1.87-4.91,3.07-7.93,3.29Zm9.34-4.7l-7.93-7.93h11.21c-.22,3.02-1.42,5.77-3.29,7.93Z"></path></svg>