<svg xmlns="http://www.w3.org/2000/svg" data-name="Layer 1" viewBox="0 0 512 512" id="car-loan"><path fill="#eb304a" d="M504.5,405.47,504.45,417a30,30,0,0,1-30,29.9H48.74a30,30,0,0,1-26.39-15.69L11.14,410.61a30.12,30.12,0,0,1-3.62-15.4c0-.43,0-.87.07-1.31L11,351.26l3.24-40.75a30.12,30.12,0,0,1,.62-4.12,29.72,29.72,0,0,1,2.56-7.16l31.87-62.52A30.07,30.07,0,0,1,76,220.32H273.67a30,30,0,0,1,19.76,7.42l88.84,77.67,4.16,1h0l86.83,20.45A30,30,0,0,1,496,351.18a2.38,2.38,0,0,1,.05.26l6.84,43.77Z"></path><path fill="#e4222e" d="M502.9,395.21l-6.84-43.77a2.38,2.38,0,0,0-.05-.26,30,30,0,0,0-22.74-24.34l-86.83-20.45h0l-4.16-1-88.84-77.67a30,30,0,0,0-19.76-7.42h-30a30,30,0,0,1,19.76,7.42l88.84,77.67,4.16,1h0l86.83,20.45A30,30,0,0,1,466,351.18a2.38,2.38,0,0,1,.05.26l6.84,43.77,1.6,10.26L474.45,417a30,30,0,0,1-30,29.9h30a30,30,0,0,0,30-29.9l.05-11.55Z"></path><path fill="#52bbe9" d="M386.43,306.39H14.82a29.72,29.72,0,0,1,2.56-7.16l31.87-62.52A30.07,30.07,0,0,1,76,220.32H273.67a30,30,0,0,1,19.76,7.42l88.84,77.67Z"></path><path fill="#1cabe1" d="M382.27,305.41l-88.84-77.67a30,30,0,0,0-19.76-7.42h-30a30,30,0,0,1,19.76,7.42l88.84,77.67,4.16,1h30Z"></path><path fill="#a8d9f5" d="M189.44,306.39h-15l-8.84-85.3a6.74,6.74,0,0,1,0-.77h15l8.84,85.3A6.62,6.62,0,0,1,189.44,306.39Z"></path><path fill="#787681" d="M395.45,504.5a57.58,57.58,0,1,1,40.7-16.86A57.2,57.2,0,0,1,395.45,504.5Z"></path><path fill="#57565c" d="M436.15,406.21a57.19,57.19,0,0,0-40.7-16.86,58.61,58.61,0,0,0-9.11.72,57.58,57.58,0,0,1,0,113.71,58.61,58.61,0,0,0,9.11.72,57.57,57.57,0,0,0,40.7-98.29Z"></path><path fill="#e1e1e3" d="M395.45,469.45a22.5,22.5,0,1,1,15.93-6.59A22.38,22.38,0,0,1,395.45,469.45Z"></path><path fill="#c8c5cc" d="M411.38,431A22.47,22.47,0,0,0,388,425.7a22.49,22.49,0,0,1,0,42.45A22.52,22.52,0,0,0,411.38,431Z"></path><path fill="#787681" d="M125.11,504.5a57.56,57.56,0,1,1,40.71-16.86A57.23,57.23,0,0,1,125.11,504.5Z"></path><path fill="#f8be32" d="M502.9,395.21H484a15,15,0,0,1-15-15v-14a15,15,0,0,1,15-15h11.79l.3.26Z"></path><path fill="#fed030" d="M496.06,351.44l-.3-.26H484a14.8,14.8,0,0,0-2.91.29l6.84,43.74h15Z"></path><path fill="#f8be32" d="M37.33,366.2v14a15,15,0,0,1-15,15H7.52c0-.43,0-.87.07-1.31L11,351.26l11.35-.08A15,15,0,0,1,37.33,366.2Z"></path><path fill="#e1e1e3" d="M239.25 343.75h-22a7.5 7.5 0 0 1 0-15h22a7.5 7.5 0 0 1 0 15zM164.16 343.75h-22a7.5 7.5 0 0 1 0-15h22a7.5 7.5 0 0 1 0 15zM125.11 469.45A22.52 22.52 0 1 1 141 462.86 22.42 22.42 0 0 1 125.11 469.45z"></path><path fill="#57565c" d="M166.15,406.21a57.19,57.19,0,0,0-40.7-16.86,58.61,58.61,0,0,0-9.11.72,57.58,57.58,0,0,1,0,113.71,58.61,58.61,0,0,0,9.11.72,57.57,57.57,0,0,0,40.7-98.29Z"></path><path fill="#c8c5cc" d="M141.38,431A22.47,22.47,0,0,0,118,425.7a22.49,22.49,0,0,1,0,42.45A22.52,22.52,0,0,0,141.38,431Z"></path><path fill="#fed947" d="M183.28,234.75a75.25,75.25,0,1,1,53.2-22A74.76,74.76,0,0,1,183.28,234.75Z"></path><path fill="#fecc30" d="M236.48,106.29a74.74,74.74,0,0,0-53.2-22,76.12,76.12,0,0,0-12.5,1,75.25,75.25,0,0,1,0,148.4,76.12,76.12,0,0,0,12.5,1.05,75.25,75.25,0,0,0,53.2-128.46Z"></path><path fill="#f8be32" d="M183.28,242.25A82.74,82.74,0,1,1,241.79,218,82.21,82.21,0,0,1,183.28,242.25Zm0-150.5a67.76,67.76,0,1,0,47.9,19.85A67.31,67.31,0,0,0,183.28,91.75Z"></path><path fill="#fff" d="M175,173.89H156.1a7.5,7.5,0,0,1,0-15H175a15.75,15.75,0,0,0,0-31.49H161.44a7.5,7.5,0,0,1,0-15H175a30.75,30.75,0,0,1,0,61.49Z"></path><path fill="#fff" d="M211 127.4H156.1a7.5 7.5 0 0 1 0-15H211a7.5 7.5 0 0 1 0 15zM211 150.27H156.1a7.5 7.5 0 0 1 0-15H211a7.5 7.5 0 0 1 0 15zM197.37 214.26a7.44 7.44 0 0 1-5.22-2.12l-41.6-40.41A7.5 7.5 0 0 1 161 161l41.6 40.41a7.5 7.5 0 0 1-5.23 12.88z"></path><path fill="#8b8893" d="M504.5,512H7.5a7.5,7.5,0,0,1,0-15h497a7.5,7.5,0,0,1,0,15Z"></path><path fill="#19ac66" d="M334.86,188.38a7.5,7.5,0,0,1-4.83-1.76l-28.76-24.2a7.5,7.5,0,0,1-.23-11.28l28.54-26.06a7.5,7.5,0,0,1,10.12,11.08l-22.23,20.29,22.22,18.69a7.5,7.5,0,0,1-4.83,13.24Z"></path><path fill="#19ac66" d="M444.5,268.88a7.5,7.5,0,0,1-7.5-7.5v-73.7a23.52,23.52,0,0,0-23.5-23.5H306.1a7.5,7.5,0,0,1,0-15H413.5a38.54,38.54,0,0,1,38.5,38.5v73.7A7.5,7.5,0,0,1,444.5,268.88Z"></path></svg>