<svg xmlns="http://www.w3.org/2000/svg" xmlns:xlink="http://www.w3.org/1999/xlink" width="64" height="64" id="parking"><defs><linearGradient id="b" x1="949.87" x2="974.39" y1="518.014" y2="544.657" gradientTransform="translate(-1529.353 356.343) scale(1.53785)" gradientUnits="userSpaceOnUse" xlink:href="#a"></linearGradient><linearGradient id="a"><stop offset="0" stop-color="#24f7bc"></stop><stop offset="1" stop-color="#24c4fc"></stop></linearGradient></defs><g transform="translate(75 -1149.362)"><rect width="48" height="48" x="-75" y="1149.362" fill="url(#b)" rx="10.144" ry="10.144"></rect><path fill="#fff" d="M-59.656 1158.362a.5.5 0 0 0-.344.5v15a.5.5 0 0 0 .5.5h5.5v13h1v-13h2v13h1v-13h5.5a.5.5 0 0 0 .5-.5v-15a.5.5 0 0 0-.5-.5h-15a.5.5 0 0 0-.156 0zm.656 1h14v14h-14v-14zm5 2.188v9.812h1.531v-3.687h.719c1.54 0 2.312-.838 2.312-2.406v-1.282c0-1.568-.772-2.437-2.312-2.437H-54zm1.531 1.406h.719c.49 0 .75.238.75.938v1.468c0 .7-.26.906-.75.906h-.719v-3.312zm8.469 18.406v1h4v-1h-4zm5 0v1h1v-1h-1zm-25 3v1h2v-1h-2zm3 0v1h6v-1h-6zm13 0v1h2v-1h-2zm3 0v1h1v-1h-1zm2 0v1h1v-1h-1z" color="#000" font-family="Sans" font-weight="400" overflow="visible" style="line-height:normal;-inkscape-font-specification:Sans;text-indent:0;text-align:start;text-decoration-line:none;text-transform:none;block-progression:tb;marker:none"></path></g></svg>