<svg xmlns="http://www.w3.org/2000/svg" xmlns:xlink="http://www.w3.org/1999/xlink" width="32" height="32" id="on"><defs><linearGradient id="a"><stop offset="0" stop-color="#16ff6a"></stop><stop offset="1" stop-color="#0090a5"></stop></linearGradient><linearGradient id="b" x1="1073.403" x2="1097.116" y1="516.451" y2="544.308" gradientTransform="translate(-1104.915 499.682) scale(1.02524)" gradientUnits="userSpaceOnUse" xlink:href="#a"></linearGradient></defs><g fill="#fff" transform="translate(9 -1028.362)"><rect width="32" height="32" x="-9" y="1028.362" fill="url(#b)" rx="6.763" ry="6.763"></rect><path d="M1.66 1038.447a.5.5 0 0 0-.468.438c-.39 3.08-.224 5.587.662 7.795.886 2.207 2.482 4.081 4.857 5.924a.5.5 0 0 0 .614 0c2.377-1.844 3.948-3.729 4.82-5.938.872-2.21 1.036-4.713.697-7.773a.5.5 0 0 0-.754-.373c-1.872 1.129-3.588 1.094-4.736.057a.5.5 0 0 0-.67 0c-1.148 1.038-2.862 1.073-4.734-.057a.492.492 0 0 0-.287-.072zm5.356 1.074c1.32.972 3.092.89 4.85.078.234 2.658.083 4.84-.65 6.7-.75 1.9-2.126 3.55-4.2 5.222-2.077-1.673-3.474-3.32-4.234-5.214-.746-1.858-.894-4.038-.62-6.71 1.76.814 3.533.896 4.854-.075zm2.217 3.926a.5.5 0 0 0-.344.153l-2.638 2.638-1.14-1.139a.5.5 0 1 0-.706.708l1.492 1.494a.5.5 0 0 0 .709 0l2.99-2.996a.5.5 0 0 0-.363-.858z" color="#000" font-family="sans-serif" font-weight="400" overflow="visible" style="text-indent:0;text-align:start;line-height:normal;text-transform:none;block-progression:tb"></path></g></svg>